<svg width="25" height="25" viewBox="0 0 25 25" fill="none" xmlns="http://www.w3.org/2000/svg">
<path d="M22.5617 7.63418C22.4422 7.18896 22.2078 6.78294 21.882 6.45676C21.5563 6.13059 21.1505 5.89569 20.7055 5.77559C19.0672 5.33496 12.5 5.33496 12.5 5.33496C12.5 5.33496 5.93281 5.33496 4.29453 5.77324C3.84927 5.89296 3.44334 6.12772 3.11751 6.45396C2.79169 6.7802 2.55744 7.18642 2.43828 7.63184C2 9.27246 2 12.6943 2 12.6943C2 12.6943 2 16.1162 2.43828 17.7545C2.67969 18.6592 3.39219 19.3717 4.29453 19.6131C5.93281 20.0537 12.5 20.0537 12.5 20.0537C12.5 20.0537 19.0672 20.0537 20.7055 19.6131C21.6102 19.3717 22.3203 18.6592 22.5617 17.7545C23 16.1162 23 12.6943 23 12.6943C23 12.6943 23 9.27246 22.5617 7.63418ZM10.4141 15.835V9.55371L15.8516 12.6709L10.4141 15.835Z" fill="white"/>
</svg>
