<svg width="25" height="25" viewBox="0 0 25 25" fill="none" xmlns="http://www.w3.org/2000/svg">
<path d="M21.125 3.31934H3.875C3.46016 3.31934 3.125 3.65449 3.125 4.06934V21.3193C3.125 21.7342 3.46016 22.0693 3.875 22.0693H21.125C21.5398 22.0693 21.875 21.7342 21.875 21.3193V4.06934C21.875 3.65449 21.5398 3.31934 21.125 3.31934ZM18.9594 8.79199H17.4617C16.2875 8.79199 16.0602 9.3498 16.0602 10.1701V11.9771H18.8633L18.4977 14.8061H16.0602V22.0693H13.1375V14.8084H10.693V11.9771H13.1375V9.89121C13.1375 7.47012 14.6164 6.15059 16.7773 6.15059C17.8133 6.15059 18.7016 6.22793 18.9617 6.26309V8.79199H18.9594Z" fill="white"/>
</svg>
