<svg width="29" height="30" viewBox="0 0 29 30" fill="none" xmlns="http://www.w3.org/2000/svg">
<path d="M20.2232 0.793508C20.1629 0.726063 17.9887 0.820131 16.0967 2.87366C14.2047 4.92541 14.4957 7.27889 14.5383 7.33924C14.5809 7.39958 17.2361 7.49365 18.9311 5.10645C20.6261 2.71924 20.2836 0.862728 20.2232 0.793508V0.793508ZM26.1052 21.6181C26.02 21.4477 21.9786 19.4279 22.3549 15.5445C22.7311 11.6593 25.3278 10.5944 25.3686 10.479C25.4094 10.3636 24.309 9.07684 23.1429 8.42546C22.2867 7.96622 21.3392 7.7031 20.3688 7.65517C20.1771 7.64984 19.5115 7.48655 18.1431 7.86105C17.2415 8.10776 15.2092 8.90645 14.6501 8.9384C14.0893 8.97035 12.4209 8.01191 10.6265 7.75811C9.47817 7.53625 8.26061 7.99062 7.38914 8.34027C6.51946 8.68814 4.86527 9.67852 3.70806 12.3107C2.55084 14.941 3.15607 19.1084 3.58914 20.4041C4.02221 21.698 4.69844 23.8189 5.84855 25.3666C6.87088 27.1131 8.22688 28.3253 8.79307 28.7371C9.35925 29.1489 10.9566 29.4222 12.0642 28.856C12.9551 28.3094 14.5632 27.9952 15.1986 28.0183C15.8322 28.0413 17.0817 28.2916 18.3614 28.9749C19.3749 29.3246 20.3333 29.179 21.2935 28.7886C22.2537 28.3963 23.6434 26.909 25.2657 23.8935C25.8815 22.4913 26.162 21.7335 26.1052 21.6181V21.6181Z" fill="white"/>
<path d="M20.2232 0.793508C20.1629 0.726063 17.9887 0.820131 16.0967 2.87366C14.2047 4.92541 14.4957 7.27889 14.5383 7.33924C14.5809 7.39958 17.2361 7.49365 18.9311 5.10645C20.6261 2.71924 20.2836 0.862728 20.2232 0.793508V0.793508ZM26.1052 21.6181C26.02 21.4477 21.9786 19.4279 22.3549 15.5445C22.7311 11.6593 25.3278 10.5944 25.3686 10.479C25.4094 10.3636 24.309 9.07684 23.1429 8.42546C22.2867 7.96622 21.3392 7.7031 20.3688 7.65517C20.1771 7.64984 19.5115 7.48655 18.1431 7.86105C17.2415 8.10776 15.2092 8.90645 14.6501 8.9384C14.0893 8.97035 12.4209 8.01191 10.6265 7.75811C9.47817 7.53625 8.26061 7.99062 7.38914 8.34027C6.51946 8.68814 4.86527 9.67852 3.70806 12.3107C2.55084 14.941 3.15607 19.1084 3.58914 20.4041C4.02221 21.698 4.69844 23.8189 5.84855 25.3666C6.87088 27.1131 8.22688 28.3253 8.79307 28.7371C9.35925 29.1489 10.9566 29.4222 12.0642 28.856C12.9551 28.3094 14.5632 27.9952 15.1986 28.0183C15.8322 28.0413 17.0817 28.2916 18.3614 28.9749C19.3749 29.3246 20.3333 29.179 21.2935 28.7886C22.2537 28.3963 23.6434 26.909 25.2657 23.8935C25.8815 22.4913 26.162 21.7335 26.1052 21.6181V21.6181Z" fill="white"/>
</svg>
