<svg width="25" height="25" viewBox="0 0 25 25" fill="none" xmlns="http://www.w3.org/2000/svg">
<path d="M20.8992 1.89453H4.09922C2.77922 1.89453 1.69922 2.97453 1.69922 4.29453V21.0945C1.69922 22.4157 2.77922 23.4945 4.09922 23.4945H20.8992C22.2192 23.4945 23.2992 22.4157 23.2992 21.0945V4.29453C23.2992 2.97453 22.2192 1.89453 20.8992 1.89453ZM12.48 19.3221C14.2427 19.3218 15.933 18.6214 17.1792 17.3749C18.4255 16.1284 19.1256 14.438 19.1256 12.6753C19.1256 12.2697 19.074 11.8785 19.002 11.4945H20.8992V20.1537C20.8992 20.2628 20.8777 20.3707 20.8358 20.4714C20.794 20.5721 20.7327 20.6636 20.6554 20.7405C20.5782 20.8174 20.4865 20.8783 20.3856 20.9197C20.2847 20.9611 20.1767 20.9822 20.0676 20.9817H4.93082C4.82178 20.9822 4.71372 20.9611 4.61285 20.9197C4.51198 20.8783 4.42027 20.8174 4.34301 20.7405C4.26574 20.6636 4.20442 20.5721 4.16259 20.4714C4.12075 20.3707 4.09922 20.2628 4.09922 20.1537V11.4945H5.95802C5.88482 11.8785 5.83322 12.2697 5.83322 12.6753C5.83354 14.4381 6.53393 16.1285 7.78037 17.375C9.02682 18.6214 10.7173 19.3218 12.48 19.3221ZM8.32682 12.6753C8.32682 12.1299 8.43424 11.5899 8.64296 11.086C8.85168 10.5821 9.1576 10.1242 9.54326 9.73858C9.92892 9.35292 10.3868 9.04699 10.8907 8.83827C11.3945 8.62956 11.9346 8.52213 12.48 8.52213C13.0254 8.52213 13.5655 8.62956 14.0694 8.83827C14.5733 9.04699 15.0311 9.35292 15.4168 9.73858C15.8024 10.1242 16.1084 10.5821 16.3171 11.086C16.5258 11.5899 16.6332 12.1299 16.6332 12.6753C16.6332 13.7768 16.1957 14.8332 15.4168 15.6121C14.6379 16.391 13.5815 16.8285 12.48 16.8285C11.3785 16.8285 10.3221 16.391 9.54326 15.6121C8.76439 14.8332 8.32682 13.7768 8.32682 12.6753ZM20.0676 7.89453H18.1296C17.9096 7.8939 17.6987 7.80621 17.5431 7.65061C17.3875 7.49502 17.2999 7.28417 17.2992 7.06413V5.12373C17.2992 4.66533 17.6712 4.29453 18.1284 4.29453H20.0664C20.5272 4.29453 20.8992 4.66533 20.8992 5.12373V7.06293C20.8992 7.52013 20.5272 7.89453 20.0676 7.89453Z" fill="white"/>
</svg>
