<svg width="29" height="29" viewBox="0 0 29 29" fill="none" xmlns="http://www.w3.org/2000/svg">
<g clip-path="url(#clip0_558_1707)">
<path d="M1.87117 14.6656C1.87117 9.95828 2.75641 6.80877 4.73889 4.82629C6.72136 2.84381 9.87088 1.95858 14.5782 1.95858C19.2856 1.95858 22.4351 2.84381 24.4176 4.82629C26.4001 6.80877 27.2853 9.95828 27.2853 14.6656C27.2853 19.373 26.4001 22.5225 24.4176 24.505C22.4351 26.4875 19.2856 27.3727 14.5782 27.3727C9.87088 27.3727 6.72136 26.4875 4.73889 24.505C2.75641 22.5225 1.87117 19.373 1.87117 14.6656Z" stroke="white" stroke-width="0.617347"/>
<path d="M15.7639 14.3573L8.17928 21.9064C8.00102 21.7352 7.85972 21.5293 7.76408 21.3013C7.66843 21.0734 7.62047 20.8283 7.62315 20.5812V8.74869C7.62188 8.49781 7.67275 8.24941 7.77256 8.01924C7.87237 7.78907 8.01893 7.58215 8.20295 7.41162L15.7639 14.3573Z" fill="url(#paint0_linear_558_1707)"/>
<path d="M22.3879 14.6664C22.3858 15.0031 22.2922 15.3329 22.1171 15.6205C21.942 15.9081 21.6921 16.1427 21.394 16.2993L19.2286 17.4825L16.5427 15.0213L15.7617 14.3587L18.6133 11.5308L21.3585 13.0335C21.6632 13.1852 21.9204 13.4178 22.1019 13.7057C22.2835 13.9937 22.3824 14.326 22.3879 14.6664Z" fill="url(#paint1_linear_558_1707)"/>
<path d="M15.7602 14.3573L8.19922 7.39982C8.30818 7.30095 8.42715 7.21371 8.55419 7.1395C8.85959 6.96179 9.20662 6.86816 9.55995 6.86816C9.91329 6.86816 10.2603 6.96179 10.5657 7.1395L18.6473 11.553L15.7602 14.3573Z" fill="url(#paint2_linear_558_1707)"/>
<path d="M19.2273 17.493L10.5659 22.226C10.264 22.3884 9.92667 22.4738 9.58385 22.4745C9.22065 22.4799 8.86347 22.3814 8.55442 22.1905C8.41862 22.1094 8.29171 22.0142 8.17578 21.9065L15.7604 14.3574L16.5058 15.0319L19.2273 17.493Z" fill="url(#paint3_linear_558_1707)"/>
</g>
<defs>
<linearGradient id="paint0_linear_558_1707" x1="11.7172" y1="21.4213" x2="11.7172" y2="7.93225" gradientUnits="userSpaceOnUse">
<stop stop-color="#00E4FF"/>
<stop offset="0.99" stop-color="#00CCFF"/>
</linearGradient>
<linearGradient id="paint1_linear_558_1707" x1="15.7972" y1="14.5125" x2="22.3879" y2="14.5125" gradientUnits="userSpaceOnUse">
<stop offset="0.01" stop-color="#FFBC00"/>
<stop offset="1" stop-color="#FFE100"/>
</linearGradient>
<linearGradient id="paint2_linear_558_1707" x1="13.4173" y1="14.3573" x2="13.4173" y2="6.85552" gradientUnits="userSpaceOnUse">
<stop stop-color="#00F055"/>
<stop offset="0.99" stop-color="#00E05A"/>
</linearGradient>
<linearGradient id="paint3_linear_558_1707" x1="13.7016" y1="22.4745" x2="13.7016" y2="14.3574" gradientUnits="userSpaceOnUse">
<stop offset="0.01" stop-color="#DE1646"/>
<stop offset="1" stop-color="#FF2B43"/>
</linearGradient>
<clipPath id="clip0_558_1707">
<rect width="28.398" height="28.398" fill="white" transform="translate(0.376953 0.461426)"/>
</clipPath>
</defs>
</svg>
