<svg width="25" height="25" viewBox="0 0 25 25" fill="none" xmlns="http://www.w3.org/2000/svg">
<path d="M19.5 3.69434C20.0304 3.69434 20.5391 3.90505 20.9142 4.28012C21.2893 4.65519 21.5 5.1639 21.5 5.69434V19.6943C21.5 20.2248 21.2893 20.7335 20.9142 21.1085C20.5391 21.4836 20.0304 21.6943 19.5 21.6943H5.5C4.96957 21.6943 4.46086 21.4836 4.08579 21.1085C3.71071 20.7335 3.5 20.2248 3.5 19.6943V5.69434C3.5 5.1639 3.71071 4.65519 4.08579 4.28012C4.46086 3.90505 4.96957 3.69434 5.5 3.69434H19.5ZM19 19.1943V13.8943C19 13.0297 18.6565 12.2005 18.0452 11.5892C17.4338 10.9778 16.6046 10.6343 15.74 10.6343C14.89 10.6343 13.9 11.1543 13.42 11.9343V10.8243H10.63V19.1943H13.42V14.2643C13.42 13.4943 14.04 12.8643 14.81 12.8643C15.1813 12.8643 15.5374 13.0118 15.7999 13.2744C16.0625 13.5369 16.21 13.893 16.21 14.2643V19.1943H19ZM7.38 9.25434C7.82556 9.25434 8.25288 9.07734 8.56794 8.76228C8.883 8.44721 9.06 8.0199 9.06 7.57434C9.06 6.64434 8.31 5.88434 7.38 5.88434C6.93178 5.88434 6.50193 6.06239 6.18499 6.37933C5.86805 6.69626 5.69 7.12612 5.69 7.57434C5.69 8.50434 6.45 9.25434 7.38 9.25434ZM8.77 19.1943V10.8243H6V19.1943H8.77Z" fill="white"/>
</svg>
