<svg width="25" height="25" viewBox="0 0 25 25" fill="none" xmlns="http://www.w3.org/2000/svg">
<path d="M22.9591 6.69434C22.1891 7.04434 21.3591 7.27434 20.4991 7.38434C21.3791 6.85434 22.0591 6.01434 22.3791 5.00434C21.5491 5.50434 20.6291 5.85434 19.6591 6.05434C18.8691 5.19434 17.7591 4.69434 16.4991 4.69434C14.1491 4.69434 12.2291 6.61434 12.2291 8.98434C12.2291 9.32434 12.2691 9.65434 12.3391 9.96434C8.77906 9.78434 5.60906 8.07434 3.49906 5.48434C3.12906 6.11434 2.91906 6.85434 2.91906 7.63434C2.91906 9.12434 3.66906 10.4443 4.82906 11.1943C4.11906 11.1943 3.45906 10.9943 2.87906 10.6943V10.7243C2.87906 12.8043 4.35906 14.5443 6.31906 14.9343C5.68979 15.1065 5.02916 15.1305 4.38906 15.0043C4.66067 15.8568 5.1926 16.6027 5.91008 17.1373C6.62756 17.6718 7.49451 17.968 8.38906 17.9843C6.87269 19.1848 4.99306 19.8337 3.05906 19.8243C2.71906 19.8243 2.37906 19.8043 2.03906 19.7643C3.93906 20.9843 6.19906 21.6943 8.61906 21.6943C16.4991 21.6943 20.8291 15.1543 20.8291 9.48434C20.8291 9.29434 20.8291 9.11434 20.8191 8.92434C21.6591 8.32434 22.3791 7.56434 22.9591 6.69434Z" fill="white"/>
</svg>
