<svg width="37" height="38" viewBox="0 0 37 38" fill="none" xmlns="http://www.w3.org/2000/svg">
<path d="M21.0759 0.5C17.0655 0.5 13.5903 2.76253 11.8877 6.06548C16.1835 6.27163 19.9365 8.51894 22.1736 11.8463C23.0316 11.6846 23.9172 11.6 24.8228 11.6H31.3378C31.3655 11.2953 31.3797 10.9868 31.3797 10.675V3.16568C31.3797 1.69347 30.1712 0.5 28.6803 0.5H21.0759ZM11.57 30.0954C11.4605 30.0985 11.3507 30.1 11.2405 30.1C5.03254 30.1 0 25.1303 0 19V10.7002C0 9.15371 1.26958 7.9 2.83568 7.9H11.2405C14.924 7.9 18.1939 9.64973 20.244 12.3534C17.1575 13.4035 14.5578 15.4856 12.8674 18.1819L9.89206 15.2439C9.34333 14.702 8.4537 14.702 7.905 15.2439C7.35628 15.7858 7.35628 16.6642 7.905 17.2061L11.5778 20.833C11.0561 22.2843 10.7722 23.847 10.7722 25.475C10.7722 27.0949 11.0533 28.65 11.57 30.0954ZM12.6456 25.475C12.6456 18.8337 18.0974 13.45 24.8228 13.45H34.028C35.6695 13.45 37 14.7639 37 16.3848V25.475C37 32.1163 31.5482 37.5 24.8228 37.5C21.9664 37.5 19.3399 36.5289 17.263 34.9028L15.0443 37.0936C14.4957 37.6354 13.606 37.6354 13.0573 37.0936C12.5086 36.5517 12.5086 35.6733 13.0573 35.1314L15.2758 32.9405C13.6291 30.8896 12.6456 28.2957 12.6456 25.475ZM18.5982 33.5843L27.2215 25.0686C27.7702 24.5267 27.7702 23.6483 27.2215 23.1064C26.6728 22.5646 25.7831 22.5646 25.2344 23.1064L16.611 31.622C17.1798 32.3618 17.8488 33.0224 18.5982 33.5843Z" fill="#15523E"/>
</svg>
