<svg width="65" height="65" viewBox="0 0 65 65" fill="none" xmlns="http://www.w3.org/2000/svg">
<path d="M36.9383 0.944336C30.0284 0.944336 24.0407 4.84262 21.1072 10.5335C28.5088 10.8887 34.9751 14.7607 38.8295 20.4936C40.3078 20.2151 41.8336 20.0693 43.394 20.0693H54.6192C54.6669 19.5444 54.6915 19.0128 54.6915 18.4756V5.53724C54.6915 3.00066 52.6092 0.944336 50.0405 0.944336H36.9383ZM20.5598 51.9364C20.3712 51.9418 20.182 51.9443 19.9921 51.9443C9.29594 51.9443 0.625 43.3818 0.625 32.8193V18.5191C0.625 15.8544 2.81245 13.6943 5.5108 13.6943H19.9921C26.3387 13.6943 31.9726 16.7091 35.5048 21.3675C30.1869 23.1767 25.7076 26.764 22.7951 31.4098L17.6687 26.3477C16.7233 25.4141 15.1905 25.4141 14.2451 26.3477C13.2997 27.2814 13.2997 28.7948 14.2451 29.7284L20.5732 35.9775C19.6744 38.4781 19.1851 41.1706 19.1851 43.9756C19.1851 46.7666 19.6695 49.446 20.5598 51.9364ZM22.413 43.9756C22.413 32.5328 31.8063 23.2568 43.394 23.2568H59.2544C62.0826 23.2568 64.375 25.5207 64.375 28.3135V43.9756C64.375 55.4184 54.9816 64.6943 43.394 64.6943C38.4725 64.6943 33.947 63.0212 30.3687 60.2194L26.5459 63.994C25.6006 64.9277 24.0678 64.9277 23.1224 63.994C22.177 63.0604 22.177 61.547 23.1224 60.6134L26.9449 56.8384C24.1075 53.3048 22.413 48.8356 22.413 43.9756ZM32.6691 57.9477L47.5269 43.2753C48.4724 42.3417 48.4724 40.8283 47.5269 39.8946C46.5815 38.961 45.0486 38.961 44.1031 39.8946L29.2454 54.5667C30.2253 55.8414 31.378 56.9796 32.6691 57.9477Z" fill="white"/>
</svg>
